<svg t="1710316682461" class="icon" viewBox="0 0 1024 1024" version="1.1" xmlns="http://www.w3.org/2000/svg" p-id="10104" width="200" height="200"><path d="M122.529915 584.642735v-140.034188c0 8.752137 43.760684 42.010256 126.030769 63.015385 70.017094 19.254701 161.039316 28.006838 259.063248 28.006837 15.753846 0 28.006838-12.252991 28.006837-28.006837 0-15.753846-12.252991-28.006838-28.006837-28.006838-87.521368 0-171.54188-8.752137-234.557265-24.505983-29.757265-7.001709-54.263248-15.753846-70.017094-24.505983-17.504274-8.752137-26.25641-14.003419-38.509402-22.755555-22.755556-15.753846-42.010256-31.507692-42.010256-31.507693v-173.292307c5.251282-38.509402 47.261538-70.017094 124.280341-92.77265 70.017094-19.254701 161.039316-29.757265 259.063248-29.757265 98.023932 0 189.046154 10.502564 259.063248 29.757265 77.018803 22.755556 119.02906 52.512821 124.280342 92.77265v612.649572c-5.251282 38.509402-47.261538 70.017094-124.280342 92.77265-70.017094 19.254701-161.039316 29.757265-259.063248 29.757265-98.023932 0-189.046154-10.502564-259.063248-29.757265-77.018803-22.755556-119.02906-52.512821-124.280341-92.77265v-161.039316c1.750427 8.752137 45.511111 42.010256 126.030769 63.015385 70.017094 19.254701 161.039316 28.006838 259.063248 28.006837 15.753846 0 28.006838-12.252991 28.006837-28.006837 0-15.753846-12.252991-28.006838-28.006837-28.006838-87.521368 0-171.54188-8.752137-234.557265-24.505983-29.757265-7.001709-54.263248-15.753846-70.017094-24.505983-17.504274-8.752137-26.25641-14.003419-38.509402-22.755555-22.755556-17.504274-40.259829-33.25812-42.010256-33.25812z" fill="#52A0FA" p-id="10105"></path></svg>